<?xml version="1.0" encoding="utf-8"?>
<!-- Generator: Adobe Illustrator 19.2.0, SVG Export Plug-In . SVG Version: 6.00 Build 0)  -->
<svg version="1.0" xmlns="http://www.w3.org/2000/svg" xmlns:xlink="http://www.w3.org/1999/xlink" x="0px" y="0px"
	 viewBox="0 0 1100 600" enable-background="new 0 0 1100 600" xml:space="preserve">
<g id="background">
</g>
<g id="bubbles">
	<g>
		
			<linearGradient id="SVGID_1_" gradientUnits="userSpaceOnUse" x1="935.3168" y1="74.4975" x2="1103.7572" y2="368.7063" gradientTransform="matrix(1 0 0 1 -677.374 0)">
			<stop  offset="0" style="stop-color:#8453FC"/>
			<stop  offset="0.2458" style="stop-color:#8436FC"/>
			<stop  offset="0.2696" style="stop-color:#8344FC"/>
			<stop  offset="0.3478" style="stop-color:#816CFD"/>
			<stop  offset="0.4309" style="stop-color:#808FFE"/>
			<stop  offset="0.5185" style="stop-color:#7EACFE"/>
			<stop  offset="0.612" style="stop-color:#7DC1FF"/>
			<stop  offset="0.7143" style="stop-color:#7DD1FF"/>
			<stop  offset="0.832" style="stop-color:#7CDAFF"/>
			<stop  offset="1" style="stop-color:#7CDDFF"/>
		</linearGradient>
		<path opacity="0.3" fill="url(#SVGID_1_)" d="M367.6,218.8c0-13-12.1-23.5-27-23.5c-14.9,0-27,10.5-27,23.5
			c0,13,12.1,23.5,27,23.5c2.9,0,5.7-0.4,8.3-1.1c2.2,3.6,6.3,6.7,9.7,8.6c-2.6-3.2-1.9-10.6-1.4-12.3c0-0.1,0-0.1,0-0.2
			C363.5,233,367.6,226.3,367.6,218.8z"/>
		
			<linearGradient id="SVGID_2_" gradientUnits="userSpaceOnUse" x1="838.9658" y1="85.5968" x2="1007.3932" y2="379.7831" gradientTransform="matrix(-1 0 0 1 1885.4102 0)">
			<stop  offset="0" style="stop-color:#8453FC"/>
			<stop  offset="0.2458" style="stop-color:#8436FC"/>
			<stop  offset="0.2696" style="stop-color:#8344FC"/>
			<stop  offset="0.3478" style="stop-color:#816CFD"/>
			<stop  offset="0.4309" style="stop-color:#808FFE"/>
			<stop  offset="0.5185" style="stop-color:#7EACFE"/>
			<stop  offset="0.612" style="stop-color:#7DC1FF"/>
			<stop  offset="0.7143" style="stop-color:#7DD1FF"/>
			<stop  offset="0.832" style="stop-color:#7CDAFF"/>
			<stop  offset="1" style="stop-color:#7CDDFF"/>
		</linearGradient>
		<path fill="url(#SVGID_2_)" d="M896.4,300.5c0-13,12.1-23.5,27-23.5c14.9,0,27,10.5,27,23.5c0,13-12.1,23.5-27,23.5
			c-2.9,0-5.7-0.4-8.3-1.1c-2.2,3.6-6.3,6.8-9.7,8.6c2.6-3.2,1.9-10.6,1.4-12.3c0-0.1,0-0.1,0-0.2
			C900.5,314.7,896.4,308,896.4,300.5z"/>
		<g>
			
				<linearGradient id="SVGID_3_" gradientUnits="userSpaceOnUse" x1="696.9996" y1="370.7091" x2="618.8269" y2="240.135" gradientTransform="matrix(-1 0 0 1 901.2393 0)">
				<stop  offset="0" style="stop-color:#8453FC"/>
				<stop  offset="0.2458" style="stop-color:#8436FC"/>
				<stop  offset="0.2696" style="stop-color:#8344FC"/>
				<stop  offset="0.3478" style="stop-color:#816CFD"/>
				<stop  offset="0.4309" style="stop-color:#808FFE"/>
				<stop  offset="0.5185" style="stop-color:#7EACFE"/>
				<stop  offset="0.612" style="stop-color:#7DC1FF"/>
				<stop  offset="0.7143" style="stop-color:#7DD1FF"/>
				<stop  offset="0.832" style="stop-color:#7CDAFF"/>
				<stop  offset="1" style="stop-color:#7CDDFF"/>
			</linearGradient>
			<path opacity="0.48" fill="url(#SVGID_3_)" d="M268.4,258.8h-34.1c-4.7,0-8.6,3.8-8.6,8.6v49.2c0,4.7,3.9,8.6,8.6,8.6h21.9
				c0.2,3.3-0.2,7.7-2.1,10.1c4-2.2,8.8-5.8,11.3-10.1h3c4.7,0,8.6-3.8,8.6-8.6v-49.2C277,262.7,273.1,258.8,268.4,258.8z"/>
			
				<linearGradient id="SVGID_4_" gradientUnits="userSpaceOnUse" x1="452.4158" y1="182.2986" x2="522.1314" y2="269.9409" gradientTransform="matrix(-1 0 0 1 901.2393 0)">
				<stop  offset="0" style="stop-color:#8453FC"/>
				<stop  offset="0.2458" style="stop-color:#8436FC"/>
				<stop  offset="0.2696" style="stop-color:#8344FC"/>
				<stop  offset="0.3478" style="stop-color:#816CFD"/>
				<stop  offset="0.4309" style="stop-color:#808FFE"/>
				<stop  offset="0.5185" style="stop-color:#7EACFE"/>
				<stop  offset="0.612" style="stop-color:#7DC1FF"/>
				<stop  offset="0.7143" style="stop-color:#7DD1FF"/>
				<stop  offset="0.832" style="stop-color:#7CDAFF"/>
				<stop  offset="1" style="stop-color:#7CDDFF"/>
			</linearGradient>
			<path opacity="0.68" fill="url(#SVGID_4_)" d="M385.5,248.3h-39.6c-5.5,0-10,4.5-10,10v57.1c0,5.5,4.5,10,10,10h1.6
				c0.2,3.8-0.2,8.9-2.5,11.7c4.7-2.5,10.2-6.7,13.1-11.7h27.3c5.5,0,10-4.5,10-10v-57.1C395.4,252.8,391,248.3,385.5,248.3z"/>
			
				<linearGradient id="SVGID_5_" gradientUnits="userSpaceOnUse" x1="567.3285" y1="210.5337" x2="698.1615" y2="313.4555" gradientTransform="matrix(-1 0 0 1 901.2393 0)">
				<stop  offset="0" style="stop-color:#8453FC"/>
				<stop  offset="0.2458" style="stop-color:#8436FC"/>
				<stop  offset="0.2696" style="stop-color:#8344FC"/>
				<stop  offset="0.3478" style="stop-color:#816CFD"/>
				<stop  offset="0.4309" style="stop-color:#808FFE"/>
				<stop  offset="0.5185" style="stop-color:#7EACFE"/>
				<stop  offset="0.612" style="stop-color:#7DC1FF"/>
				<stop  offset="0.7143" style="stop-color:#7DD1FF"/>
				<stop  offset="0.832" style="stop-color:#7CDAFF"/>
				<stop  offset="1" style="stop-color:#7CDDFF"/>
			</linearGradient>
			<path opacity="0.48" fill="url(#SVGID_5_)" d="M297.2,232.6h-37.5c-3.6,0-6.5,2.9-6.5,6.5v26c0,3.6,2.9,6.5,6.5,6.5h24.1
				c1.7,3.8,5.8,7.2,9.3,9c-1.7-2.2-1.8-6.5-1.5-9h5.6c3.6,0,6.5-2.9,6.5-6.5v-26C303.8,235.5,300.8,232.6,297.2,232.6z"/>
			
				<linearGradient id="SVGID_6_" gradientUnits="userSpaceOnUse" x1="657.7162" y1="470.1697" x2="644.683" y2="323.329" gradientTransform="matrix(-1 0 0 1 901.2393 0)">
				<stop  offset="0" style="stop-color:#8453FC"/>
				<stop  offset="0.2458" style="stop-color:#8436FC"/>
				<stop  offset="0.2696" style="stop-color:#8344FC"/>
				<stop  offset="0.3478" style="stop-color:#816CFD"/>
				<stop  offset="0.4309" style="stop-color:#808FFE"/>
				<stop  offset="0.5185" style="stop-color:#7EACFE"/>
				<stop  offset="0.612" style="stop-color:#7DC1FF"/>
				<stop  offset="0.7143" style="stop-color:#7DD1FF"/>
				<stop  offset="0.832" style="stop-color:#7CDAFF"/>
				<stop  offset="1" style="stop-color:#7CDDFF"/>
			</linearGradient>
			<path fill="url(#SVGID_6_)" d="M255.3,306.9c-22.6,0-40.9,13.5-40.9,30.2c0,13,11.2,24.1,26.8,28.3c0.5,3.2,0.6,9.6-1.9,12.7
				c4.3-2.3,9.5-6.3,11.9-11c1.4,0.1,2.8,0.2,4.2,0.2c22.6,0,40.9-13.5,40.9-30.2C296.3,320.4,278,306.9,255.3,306.9z"/>
			
				<linearGradient id="SVGID_7_" gradientUnits="userSpaceOnUse" x1="796.1127" y1="365.8101" x2="687.033" y2="282.6236" gradientTransform="matrix(-1 0 0 1 901.2393 0)">
				<stop  offset="0" style="stop-color:#8453FC"/>
				<stop  offset="0.2458" style="stop-color:#8436FC"/>
				<stop  offset="0.2696" style="stop-color:#8344FC"/>
				<stop  offset="0.3478" style="stop-color:#816CFD"/>
				<stop  offset="0.4309" style="stop-color:#808FFE"/>
				<stop  offset="0.5185" style="stop-color:#7EACFE"/>
				<stop  offset="0.612" style="stop-color:#7DC1FF"/>
				<stop  offset="0.7143" style="stop-color:#7DD1FF"/>
				<stop  offset="0.832" style="stop-color:#7CDAFF"/>
				<stop  offset="1" style="stop-color:#7CDDFF"/>
			</linearGradient>
			<path opacity="0.48" fill="url(#SVGID_7_)" d="M214.4,306.6c0-7-4.1-12.9-10-15.8c-0.9-8.8-8.3-15.7-17.4-15.7
				c-2.7,0-5.2,0.6-7.5,1.7c-2.3-1.1-4.8-1.7-7.5-1.7c-7,0-13.1,4.2-15.8,10.1c-8.8,0.8-15.8,8.3-15.8,17.4c0,6,3,11.2,7.6,14.4
				c1.8,7.7,8.7,13.5,17,13.5c3.7,0,7.2-1.2,10-3.2c2.8,2,6.3,3.2,10,3.2c1.5,0,2.9-0.2,4.3-0.5c2.5,3.7,6.7,6.9,10.3,8.8
				c-2.9-3.5-2.1-11.7-1.5-13.5c0-0.1,0-0.3-0.2-0.4c0.2-0.3,0.5-0.5,0.7-0.8C207.5,323.1,214.4,315.6,214.4,306.6z"/>
			
				<linearGradient id="SVGID_8_" gradientUnits="userSpaceOnUse" x1="483.6487" y1="395.9894" x2="672.0108" y2="278.0251" gradientTransform="matrix(-1 0 0 1 901.2393 0)">
				<stop  offset="0" style="stop-color:#8453FC"/>
				<stop  offset="0.2458" style="stop-color:#8436FC"/>
				<stop  offset="0.2696" style="stop-color:#8344FC"/>
				<stop  offset="0.3478" style="stop-color:#816CFD"/>
				<stop  offset="0.4309" style="stop-color:#808FFE"/>
				<stop  offset="0.5185" style="stop-color:#7EACFE"/>
				<stop  offset="0.612" style="stop-color:#7DC1FF"/>
				<stop  offset="0.7143" style="stop-color:#7DD1FF"/>
				<stop  offset="0.832" style="stop-color:#7CDAFF"/>
				<stop  offset="1" style="stop-color:#7CDDFF"/>
			</linearGradient>
			<path fill="url(#SVGID_8_)" d="M352.9,319.3c-0.9-9.6-9-17-18.8-17c-4.9,0-9.4,1.9-12.7,5c-3.3-3.1-7.8-5-12.7-5
				c-9.6,0-17.5,7.2-18.7,16.5c-6.9,2.8-11.8,9.6-11.8,17.5c0,10.4,8.4,18.8,18.8,18.8c3,0,5.7-0.7,8.2-1.9c1,1.6,2.2,3,3.5,4.2
				c0.6,3.4,0.7,10.7-2.1,14.2c4-2.1,8.6-5.6,11.6-9.7c0.9,0.2,1.9,0.3,2.9,0.3c6.6,0,12.4-3.4,15.8-8.6c2.3,1,4.9,1.6,7.6,1.6
				c10.4,0,18.8-8.4,18.8-18.8C363.6,328.8,359.2,322.3,352.9,319.3z"/>
			
				<linearGradient id="SVGID_9_" gradientUnits="userSpaceOnUse" x1="1140.7699" y1="66.1928" x2="1324.3529" y2="386.8506" gradientTransform="matrix(1 0 0 1 -677.374 0)">
				<stop  offset="0" style="stop-color:#8453FC"/>
				<stop  offset="0.2458" style="stop-color:#8436FC"/>
				<stop  offset="0.2696" style="stop-color:#8344FC"/>
				<stop  offset="0.3478" style="stop-color:#816CFD"/>
				<stop  offset="0.4309" style="stop-color:#808FFE"/>
				<stop  offset="0.5185" style="stop-color:#7EACFE"/>
				<stop  offset="0.612" style="stop-color:#7DC1FF"/>
				<stop  offset="0.7143" style="stop-color:#7DD1FF"/>
				<stop  offset="0.832" style="stop-color:#7CDAFF"/>
				<stop  offset="1" style="stop-color:#7CDDFF"/>
			</linearGradient>
			<path opacity="0.48" fill="url(#SVGID_9_)" d="M582.9,223.5c0-14.1-13.2-25.6-29.4-25.6c-16.3,0-29.5,11.4-29.5,25.6
				c0,14.1,13.2,25.6,29.5,25.6c3.1,0,6.2-0.4,9-1.2c2.5,4,6.8,7.4,10.6,9.4c-2.8-3.5-2.1-11.6-1.5-13.4c0-0.1,0-0.1,0-0.2
				C578.4,238.9,582.9,231.6,582.9,223.5z"/>
			
				<linearGradient id="SVGID_10_" gradientUnits="userSpaceOnUse" x1="466.6776" y1="354.3544" x2="355.8649" y2="169.2606" gradientTransform="matrix(-1 0 0 1 901.2393 0)">
				<stop  offset="0" style="stop-color:#8453FC"/>
				<stop  offset="0.2458" style="stop-color:#8436FC"/>
				<stop  offset="0.2696" style="stop-color:#8344FC"/>
				<stop  offset="0.3478" style="stop-color:#816CFD"/>
				<stop  offset="0.4309" style="stop-color:#808FFE"/>
				<stop  offset="0.5185" style="stop-color:#7EACFE"/>
				<stop  offset="0.612" style="stop-color:#7DC1FF"/>
				<stop  offset="0.7143" style="stop-color:#7DD1FF"/>
				<stop  offset="0.832" style="stop-color:#7CDAFF"/>
				<stop  offset="1" style="stop-color:#7CDDFF"/>
			</linearGradient>
			<path opacity="0.68" fill="url(#SVGID_10_)" d="M525.5,195.8h-48.4c-6.7,0-12.2,5.5-12.2,12.2v69.8c0,6.7,5.5,12.2,12.2,12.2
				h31.1c0.2,4.7-0.3,10.9-3,14.3c5.7-3,12.4-8.2,16-14.3h4.2c6.7,0,12.2-5.5,12.2-12.2V208C537.7,201.2,532.2,195.8,525.5,195.8z"
				/>
			
				<linearGradient id="SVGID_11_" gradientUnits="userSpaceOnUse" x1="193.7993" y1="124.561" x2="267.9737" y2="217.8086" gradientTransform="matrix(-1 0 0 1 901.2393 0)">
				<stop  offset="0" style="stop-color:#8453FC"/>
				<stop  offset="0.2458" style="stop-color:#8436FC"/>
				<stop  offset="0.2696" style="stop-color:#8344FC"/>
				<stop  offset="0.3478" style="stop-color:#816CFD"/>
				<stop  offset="0.4309" style="stop-color:#808FFE"/>
				<stop  offset="0.5185" style="stop-color:#7EACFE"/>
				<stop  offset="0.612" style="stop-color:#7DC1FF"/>
				<stop  offset="0.7143" style="stop-color:#7DD1FF"/>
				<stop  offset="0.832" style="stop-color:#7CDAFF"/>
				<stop  offset="1" style="stop-color:#7CDDFF"/>
			</linearGradient>
			<path opacity="0.68" fill="url(#SVGID_11_)" d="M640,194.8H598c-5.9,0-10.6,4.7-10.6,10.6v60.7c0,5.9,4.7,10.6,10.6,10.6h1.7
				c0.2,4.1-0.2,9.5-2.6,12.5c5-2.6,10.8-7.2,14-12.5H640c5.8,0,10.6-4.7,10.6-10.6v-60.7C650.6,199.5,645.9,194.8,640,194.8z"/>
			
				<linearGradient id="SVGID_12_" gradientUnits="userSpaceOnUse" x1="407.8434" y1="277.4618" x2="622.945" y2="446.6748" gradientTransform="matrix(-1 0 0 1 901.2393 0)">
				<stop  offset="0" style="stop-color:#8453FC"/>
				<stop  offset="0.2458" style="stop-color:#8436FC"/>
				<stop  offset="0.2696" style="stop-color:#8344FC"/>
				<stop  offset="0.3478" style="stop-color:#816CFD"/>
				<stop  offset="0.4309" style="stop-color:#808FFE"/>
				<stop  offset="0.5185" style="stop-color:#7EACFE"/>
				<stop  offset="0.612" style="stop-color:#7DC1FF"/>
				<stop  offset="0.7143" style="stop-color:#7DD1FF"/>
				<stop  offset="0.832" style="stop-color:#7CDAFF"/>
				<stop  offset="1" style="stop-color:#7CDDFF"/>
			</linearGradient>
			<path fill="url(#SVGID_12_)" d="M433.1,313.7h-61.7c-5.9,0-10.8,4.8-10.8,10.8v42.7c0,5.9,4.8,10.8,10.8,10.8h39.7
				c2.7,6.3,9.6,11.8,15.3,14.9c-2.9-3.6-3-10.7-2.5-14.9h9.2c5.9,0,10.8-4.8,10.8-10.8v-42.7C443.9,318.5,439,313.7,433.1,313.7z"
				/>
			
				<linearGradient id="SVGID_13_" gradientUnits="userSpaceOnUse" x1="352.6674" y1="558.1636" x2="330.6518" y2="310.1195" gradientTransform="matrix(-1 0 0 1 901.2393 0)">
				<stop  offset="0" style="stop-color:#8453FC"/>
				<stop  offset="0.2458" style="stop-color:#8436FC"/>
				<stop  offset="0.2696" style="stop-color:#8344FC"/>
				<stop  offset="0.3478" style="stop-color:#816CFD"/>
				<stop  offset="0.4309" style="stop-color:#808FFE"/>
				<stop  offset="0.5185" style="stop-color:#7EACFE"/>
				<stop  offset="0.612" style="stop-color:#7DC1FF"/>
				<stop  offset="0.7143" style="stop-color:#7DD1FF"/>
				<stop  offset="0.832" style="stop-color:#7CDAFF"/>
				<stop  offset="1" style="stop-color:#7CDDFF"/>
			</linearGradient>
			<path fill="url(#SVGID_13_)" d="M568.5,282.4c-38.2,0-69.2,22.8-69.2,51c0,22,18.9,40.7,45.3,47.8c0.8,5.4,1,16.3-3.2,21.5
				c7.3-3.9,16-10.7,20.1-18.6c2.3,0.2,4.6,0.3,7,0.3c38.2,0,69.2-22.8,69.2-50.9C637.7,305.2,606.7,282.4,568.5,282.4z"/>
			
				<linearGradient id="SVGID_14_" gradientUnits="userSpaceOnUse" x1="341.8406" y1="426.1773" x2="176.7489" y2="300.2749" gradientTransform="matrix(-1 0 0 1 901.2393 0)">
				<stop  offset="0" style="stop-color:#8453FC"/>
				<stop  offset="0.2458" style="stop-color:#8436FC"/>
				<stop  offset="0.2696" style="stop-color:#8344FC"/>
				<stop  offset="0.3478" style="stop-color:#816CFD"/>
				<stop  offset="0.4309" style="stop-color:#808FFE"/>
				<stop  offset="0.5185" style="stop-color:#7EACFE"/>
				<stop  offset="0.612" style="stop-color:#7DC1FF"/>
				<stop  offset="0.7143" style="stop-color:#7DD1FF"/>
				<stop  offset="0.832" style="stop-color:#7CDAFF"/>
				<stop  offset="1" style="stop-color:#7CDDFF"/>
			</linearGradient>
			<path fill="url(#SVGID_14_)" d="M724.8,336.5c0-10.5-6.2-19.6-15.1-23.9c-1.3-13.3-12.6-23.8-26.3-23.8c-4.1,0-7.9,1-11.4,2.6
				c-3.5-1.7-7.3-2.6-11.4-2.6c-10.6,0-19.8,6.3-24,15.3c-13.4,1.3-23.9,12.5-23.9,26.3c0,9,4.5,17,11.5,21.8
				c2.7,11.7,13.2,20.4,25.7,20.4c5.7,0,10.9-1.8,15.2-4.8c4.3,3,9.5,4.8,15.2,4.8c2.3,0,4.4-0.3,6.5-0.8
				c3.9,5.6,10.1,10.4,15.6,13.3c-4.3-5.4-3.2-17.7-2.3-20.5c0.1-0.2-0.1-0.4-0.3-0.6c0.4-0.4,0.7-0.8,1.1-1.2
				C714.3,361.5,724.8,350.2,724.8,336.5z"/>
			
				<linearGradient id="SVGID_15_" gradientUnits="userSpaceOnUse" x1="385.5321" y1="298.9476" x2="542.3859" y2="200.7159" gradientTransform="matrix(-1 0 0 1 901.2393 0)">
				<stop  offset="0" style="stop-color:#8453FC"/>
				<stop  offset="0.2458" style="stop-color:#8436FC"/>
				<stop  offset="0.2696" style="stop-color:#8344FC"/>
				<stop  offset="0.3478" style="stop-color:#816CFD"/>
				<stop  offset="0.4309" style="stop-color:#808FFE"/>
				<stop  offset="0.5185" style="stop-color:#7EACFE"/>
				<stop  offset="0.612" style="stop-color:#7DC1FF"/>
				<stop  offset="0.7143" style="stop-color:#7DD1FF"/>
				<stop  offset="0.832" style="stop-color:#7CDAFF"/>
				<stop  offset="1" style="stop-color:#7CDDFF"/>
			</linearGradient>
			<path opacity="0.68" fill="url(#SVGID_15_)" d="M461.8,235.1c-0.8-8-7.5-14.2-15.6-14.2c-4.1,0-7.8,1.6-10.6,4.1
				c-2.8-2.6-6.5-4.1-10.6-4.1c-8,0-14.6,6-15.6,13.7c-5.8,2.3-9.8,8-9.8,14.6c0,8.7,7,15.7,15.7,15.7c2.5,0,4.8-0.6,6.9-1.6
				c0.8,1.3,1.8,2.5,3,3.5c0.5,2.8,0.6,8.9-1.7,11.8c3.3-1.8,7.2-4.7,9.6-8.1c0.8,0.1,1.6,0.2,2.4,0.2c5.5,0,10.4-2.9,13.2-7.2
				c1.9,0.9,4.1,1.3,6.4,1.3c8.7,0,15.7-7,15.7-15.7C470.7,243,467.1,237.6,461.8,235.1z"/>
			
				<linearGradient id="SVGID_16_" gradientUnits="userSpaceOnUse" x1="538.9386" y1="180.2965" x2="410.2053" y2="358.5429" gradientTransform="matrix(-1 0 0 1 901.2393 0)">
				<stop  offset="0" style="stop-color:#8453FC"/>
				<stop  offset="0.2458" style="stop-color:#8436FC"/>
				<stop  offset="0.2696" style="stop-color:#8344FC"/>
				<stop  offset="0.3478" style="stop-color:#816CFD"/>
				<stop  offset="0.4309" style="stop-color:#808FFE"/>
				<stop  offset="0.5185" style="stop-color:#7EACFE"/>
				<stop  offset="0.612" style="stop-color:#7DC1FF"/>
				<stop  offset="0.7143" style="stop-color:#7DD1FF"/>
				<stop  offset="0.832" style="stop-color:#7CDAFF"/>
				<stop  offset="1" style="stop-color:#7CDDFF"/>
			</linearGradient>
			<path fill="url(#SVGID_16_)" d="M534.6,333c0-8.9-7-16.6-17.2-20.2c-1.5-11.3-14.3-20.2-30-20.2c-4.7,0-9.1,0.8-13,2.2
				c-3.9-1.4-8.3-2.2-13-2.2c-12.1,0-22.5,5.3-27.3,13c-15.3,1.1-27.2,10.7-27.2,22.3c0,7.7,5.2,14.4,13.1,18.5
				c3.1,9.9,15,17.3,29.3,17.3c6.5,0,12.4-1.5,17.3-4.1c4.9,2.6,10.9,4.1,17.3,4.1c2.6,0,5-0.3,7.4-0.7c4.4,4.8,11.6,8.8,17.8,11.3
				c-4.9-4.6-3.7-15-2.6-17.4c0.1-0.2-0.1-0.3-0.3-0.5c0.4-0.3,0.8-0.7,1.2-1C522.7,354.2,534.6,344.6,534.6,333z"/>
			
				<linearGradient id="SVGID_17_" gradientUnits="userSpaceOnUse" x1="1329.2667" y1="167.4537" x2="1533.6372" y2="524.4203" gradientTransform="matrix(1 0 0 1 -677.374 0)">
				<stop  offset="0" style="stop-color:#8453FC"/>
				<stop  offset="0.2458" style="stop-color:#8436FC"/>
				<stop  offset="0.2696" style="stop-color:#8344FC"/>
				<stop  offset="0.3478" style="stop-color:#816CFD"/>
				<stop  offset="0.4309" style="stop-color:#808FFE"/>
				<stop  offset="0.5185" style="stop-color:#7EACFE"/>
				<stop  offset="0.612" style="stop-color:#7DC1FF"/>
				<stop  offset="0.7143" style="stop-color:#7DD1FF"/>
				<stop  offset="0.832" style="stop-color:#7CDAFF"/>
				<stop  offset="1" style="stop-color:#7CDDFF"/>
			</linearGradient>
			<path fill="url(#SVGID_17_)" d="M784.9,342.5c0-15.7-14.7-28.5-32.8-28.5c-18.1,0-32.8,12.7-32.8,28.5
				c0,15.7,14.7,28.5,32.8,28.5c3.5,0,6.9-0.5,10-1.4c2.7,4.4,7.6,8.2,11.8,10.4c-3.1-3.9-2.3-12.9-1.7-14.9c0-0.1,0-0.1,0-0.2
				C779.9,359.7,784.9,351.6,784.9,342.5z"/>
			
				<linearGradient id="SVGID_18_" gradientUnits="userSpaceOnUse" x1="298.6797" y1="258.4198" x2="239.3336" y2="159.2922" gradientTransform="matrix(-1 0 0 1 901.2393 0)">
				<stop  offset="0" style="stop-color:#8453FC"/>
				<stop  offset="0.2458" style="stop-color:#8436FC"/>
				<stop  offset="0.2696" style="stop-color:#8344FC"/>
				<stop  offset="0.3478" style="stop-color:#816CFD"/>
				<stop  offset="0.4309" style="stop-color:#808FFE"/>
				<stop  offset="0.5185" style="stop-color:#7EACFE"/>
				<stop  offset="0.612" style="stop-color:#7DC1FF"/>
				<stop  offset="0.7143" style="stop-color:#7DD1FF"/>
				<stop  offset="0.832" style="stop-color:#7CDAFF"/>
				<stop  offset="1" style="stop-color:#7CDDFF"/>
			</linearGradient>
			<path opacity="0.3" fill="url(#SVGID_18_)" d="M651.3,173.5h-25.9c-3.6,0-6.5,2.9-6.5,6.5v37.4c0,3.6,2.9,6.5,6.5,6.5H642
				c0.1,2.5-0.1,5.8-1.6,7.7c3.1-1.6,6.7-4.4,8.6-7.7h2.3c3.6,0,6.5-2.9,6.5-6.5V180C657.8,176.4,654.9,173.5,651.3,173.5z"/>
			
				<linearGradient id="SVGID_19_" gradientUnits="userSpaceOnUse" x1="-5.5345" y1="159.4856" x2="72.8208" y2="257.9893" gradientTransform="matrix(-1 0 0 1 901.2393 0)">
				<stop  offset="0" style="stop-color:#8453FC"/>
				<stop  offset="0.2458" style="stop-color:#8436FC"/>
				<stop  offset="0.2696" style="stop-color:#8344FC"/>
				<stop  offset="0.3478" style="stop-color:#816CFD"/>
				<stop  offset="0.4309" style="stop-color:#808FFE"/>
				<stop  offset="0.5185" style="stop-color:#7EACFE"/>
				<stop  offset="0.612" style="stop-color:#7DC1FF"/>
				<stop  offset="0.7143" style="stop-color:#7DD1FF"/>
				<stop  offset="0.832" style="stop-color:#7CDAFF"/>
				<stop  offset="1" style="stop-color:#7CDDFF"/>
			</linearGradient>
			<path opacity="0.48" fill="url(#SVGID_19_)" d="M835.6,233.7h-44.5c-6.2,0-11.2,5-11.2,11.2V309c0,6.2,5,11.2,11.2,11.2h1.8
				c0.2,4.3-0.3,10-2.8,13.2c5.3-2.8,11.4-7.6,14.7-13.2h30.7c6.2,0,11.2-5,11.2-11.2v-64.2C846.8,238.7,841.8,233.7,835.6,233.7z"
				/>
			
				<linearGradient id="SVGID_20_" gradientUnits="userSpaceOnUse" x1="133.6126" y1="203.5832" x2="333.9388" y2="361.1729" gradientTransform="matrix(-1 0 0 1 901.2393 0)">
				<stop  offset="0" style="stop-color:#8453FC"/>
				<stop  offset="0.2458" style="stop-color:#8436FC"/>
				<stop  offset="0.2696" style="stop-color:#8344FC"/>
				<stop  offset="0.3478" style="stop-color:#816CFD"/>
				<stop  offset="0.4309" style="stop-color:#808FFE"/>
				<stop  offset="0.5185" style="stop-color:#7EACFE"/>
				<stop  offset="0.612" style="stop-color:#7DC1FF"/>
				<stop  offset="0.7143" style="stop-color:#7DD1FF"/>
				<stop  offset="0.832" style="stop-color:#7CDAFF"/>
				<stop  offset="1" style="stop-color:#7CDDFF"/>
			</linearGradient>
			<path fill="url(#SVGID_20_)" d="M711.5,237.3H654c-5.5,0-10,4.5-10,10v39.8c0,5.5,4.5,10,10,10H691c2.5,5.9,8.9,11,14.2,13.8
				c-2.7-3.3-2.8-9.9-2.3-13.8h8.6c5.5,0,10-4.5,10-10v-39.8C721.5,241.8,717,237.3,711.5,237.3z"/>
			
				<linearGradient id="SVGID_21_" gradientUnits="userSpaceOnUse" x1="-259.0982" y1="334.0388" x2="-270.6488" y2="203.9009" gradientTransform="matrix(1 0 0 1 682.4443 0)">
				<stop  offset="0" style="stop-color:#8453FC"/>
				<stop  offset="0.2458" style="stop-color:#8436FC"/>
				<stop  offset="0.2696" style="stop-color:#8344FC"/>
				<stop  offset="0.3478" style="stop-color:#816CFD"/>
				<stop  offset="0.4309" style="stop-color:#808FFE"/>
				<stop  offset="0.5185" style="stop-color:#7EACFE"/>
				<stop  offset="0.612" style="stop-color:#7DC1FF"/>
				<stop  offset="0.7143" style="stop-color:#7DD1FF"/>
				<stop  offset="0.832" style="stop-color:#7CDAFF"/>
				<stop  offset="1" style="stop-color:#7CDDFF"/>
			</linearGradient>
			<path opacity="0.3" fill="url(#SVGID_21_)" d="M412.9,189.3c20,0,36.3,12,36.3,26.7c0,11.5-9.9,21.3-23.8,25.1
				c-0.4,2.8-0.5,8.5,1.7,11.3c-3.8-2-8.4-5.6-10.5-9.8c-1.2,0.1-2.4,0.1-3.7,0.1c-20,0-36.3-12-36.3-26.7
				C376.6,201.3,392.8,189.3,412.9,189.3z"/>
			
				<linearGradient id="SVGID_22_" gradientUnits="userSpaceOnUse" x1="143.5053" y1="392.1257" x2="31.1335" y2="306.4286" gradientTransform="matrix(-1 0 0 1 901.2393 0)">
				<stop  offset="0" style="stop-color:#8453FC"/>
				<stop  offset="0.2458" style="stop-color:#8436FC"/>
				<stop  offset="0.2696" style="stop-color:#8344FC"/>
				<stop  offset="0.3478" style="stop-color:#816CFD"/>
				<stop  offset="0.4309" style="stop-color:#808FFE"/>
				<stop  offset="0.5185" style="stop-color:#7EACFE"/>
				<stop  offset="0.612" style="stop-color:#7DC1FF"/>
				<stop  offset="0.7143" style="stop-color:#7DD1FF"/>
				<stop  offset="0.832" style="stop-color:#7CDAFF"/>
				<stop  offset="1" style="stop-color:#7CDDFF"/>
			</linearGradient>
			<path fill="url(#SVGID_22_)" d="M870.3,331.1c0-7.2-4.2-13.3-10.3-16.2c-0.9-9.1-8.6-16.2-17.9-16.2c-2.8,0-5.4,0.7-7.8,1.8
				c-2.4-1.1-5-1.8-7.8-1.8c-7.2,0-13.5,4.3-16.3,10.4c-9.1,0.9-16.3,8.5-16.3,17.9c0,6.2,3.1,11.6,7.8,14.8c1.9,8,9,13.9,17.5,13.9
				c3.9,0,7.4-1.2,10.4-3.3c2.9,2.1,6.5,3.3,10.3,3.3c1.5,0,3-0.2,4.4-0.6c2.6,3.8,6.9,7.1,10.6,9c-2.9-3.7-2.2-12.1-1.5-13.9
				c0-0.1,0-0.3-0.2-0.4c0.3-0.3,0.5-0.5,0.7-0.8C863.2,348.1,870.3,340.4,870.3,331.1z"/>
			
				<linearGradient id="SVGID_23_" gradientUnits="userSpaceOnUse" x1="-79.6341" y1="345.2779" x2="120.8012" y2="219.7526" gradientTransform="matrix(-1 0 0 1 901.2393 0)">
				<stop  offset="0" style="stop-color:#8453FC"/>
				<stop  offset="0.2458" style="stop-color:#8436FC"/>
				<stop  offset="0.2696" style="stop-color:#8344FC"/>
				<stop  offset="0.3478" style="stop-color:#816CFD"/>
				<stop  offset="0.4309" style="stop-color:#808FFE"/>
				<stop  offset="0.5185" style="stop-color:#7EACFE"/>
				<stop  offset="0.612" style="stop-color:#7DC1FF"/>
				<stop  offset="0.7143" style="stop-color:#7DD1FF"/>
				<stop  offset="0.832" style="stop-color:#7CDAFF"/>
				<stop  offset="1" style="stop-color:#7CDDFF"/>
			</linearGradient>
			<path opacity="0.48" fill="url(#SVGID_23_)" d="M912,263.6c-1-10.2-9.5-18.1-20-18.1c-5.2,0-9.9,2-13.5,5.3
				c-3.6-3.3-8.3-5.3-13.5-5.3c-10.2,0-18.7,7.7-19.9,17.6c-7.4,3-12.6,10.2-12.6,18.6c0,11.1,9,20.1,20.1,20.1c3.1,0,6.1-0.8,8.8-2
				c1,1.7,2.3,3.2,3.8,4.4c0.6,3.6,0.8,11.4-2.2,15.1c4.3-2.3,9.2-6,12.3-10.3c1,0.2,2,0.3,3.1,0.3c7,0,13.2-3.6,16.8-9.1
				c2.5,1.1,5.2,1.7,8.1,1.7c11.1,0,20.1-9,20.1-20.1C923.4,273.7,918.7,266.9,912,263.6z"/>
			
				<linearGradient id="SVGID_24_" gradientUnits="userSpaceOnUse" x1="265.3729" y1="100.9533" x2="140.0152" y2="274.5258" gradientTransform="matrix(-1 0 0 1 901.2393 0)">
				<stop  offset="0" style="stop-color:#8453FC"/>
				<stop  offset="0.2458" style="stop-color:#8436FC"/>
				<stop  offset="0.2696" style="stop-color:#8344FC"/>
				<stop  offset="0.3478" style="stop-color:#816CFD"/>
				<stop  offset="0.4309" style="stop-color:#808FFE"/>
				<stop  offset="0.5185" style="stop-color:#7EACFE"/>
				<stop  offset="0.612" style="stop-color:#7DC1FF"/>
				<stop  offset="0.7143" style="stop-color:#7DD1FF"/>
				<stop  offset="0.832" style="stop-color:#7CDAFF"/>
				<stop  offset="1" style="stop-color:#7CDDFF"/>
			</linearGradient>
			<path opacity="0.48" fill="url(#SVGID_24_)" d="M803.6,249.6c0-8.7-6.9-16.2-16.8-19.7c-1.5-11-14-19.7-29.2-19.7
				c-4.5,0-8.8,0.8-12.7,2.2c-3.8-1.4-8.1-2.2-12.7-2.2c-11.8,0-21.9,5.2-26.6,12.7c-14.9,1.1-26.5,10.4-26.5,21.7
				c0,7.5,5,14,12.7,18c3,9.7,14.6,16.9,28.5,16.9c6.3,0,12.1-1.5,16.9-4c4.8,2.5,10.6,4,16.9,4c2.5,0,4.9-0.3,7.2-0.7
				c4.3,4.7,11.3,8.6,17.3,11c-4.8-4.4-3.6-14.6-2.5-16.9c0.1-0.2-0.1-0.3-0.3-0.5c0.4-0.3,0.8-0.6,1.2-1
				C792,270.3,803.6,261,803.6,249.6z"/>
			<defs>
				<filter id="Adobe_OpacityMaskFilter" filterUnits="userSpaceOnUse" x="73.2" y="401.1" width="949.5" height="51.1">
					<feFlood  style="flood-color:white;flood-opacity:1" result="back"/>
					<feBlend  in="SourceGraphic" in2="back" mode="normal"/>
				</filter>
			</defs>
			<mask maskUnits="userSpaceOnUse" x="73.2" y="401.1" width="949.5" height="51.1" id="SVGID_25_">
				<g filter="url(#Adobe_OpacityMaskFilter)">
					<defs>
						<filter id="Adobe_OpacityMaskFilter_1_" filterUnits="userSpaceOnUse" x="73.2" y="401.1" width="949.5" height="51.1">
							<feFlood  style="flood-color:white;flood-opacity:1" result="back"/>
							<feBlend  in="SourceGraphic" in2="back" mode="normal"/>
						</filter>
					</defs>
					<mask maskUnits="userSpaceOnUse" x="73.2" y="401.1" width="949.5" height="51.1" id="SVGID_25_">
						<g filter="url(#Adobe_OpacityMaskFilter_1_)">
						</g>
					</mask>
					
						<radialGradient id="SVGID_26_" cx="1245.642" cy="-44.6379" r="110.0518" gradientTransform="matrix(4.3142 0 0 0.232 -4826.0278 437.0016)" gradientUnits="userSpaceOnUse">
						<stop  offset="0" style="stop-color:#FFFFFF"/>
						<stop  offset="8.514865e-02" style="stop-color:#F7F7F7"/>
						<stop  offset="0.2206" style="stop-color:#E0E0E0"/>
						<stop  offset="0.3893" style="stop-color:#BABABA"/>
						<stop  offset="0.5848" style="stop-color:#868686"/>
						<stop  offset="0.7998" style="stop-color:#444444"/>
						<stop  offset="1" style="stop-color:#000000"/>
					</radialGradient>
					<ellipse mask="url(#SVGID_25_)" fill="url(#SVGID_26_)" cx="547.9" cy="426.6" rx="474.7" ry="25.5"/>
				</g>
			</mask>
			
				<radialGradient id="SVGID_27_" cx="1245.642" cy="-44.6379" r="110.0518" gradientTransform="matrix(4.3142 0 0 0.232 -4826.0278 437.0016)" gradientUnits="userSpaceOnUse">
				<stop  offset="0" style="stop-color:#CCCCCC"/>
				<stop  offset="0.2719" style="stop-color:#D4D4D4"/>
				<stop  offset="0.7024" style="stop-color:#EBEBEB"/>
				<stop  offset="1" style="stop-color:#FFFFFF"/>
			</radialGradient>
			<ellipse opacity="0.7" fill="url(#SVGID_27_)" cx="547.9" cy="426.6" rx="474.7" ry="25.5"/>
		</g>
	</g>
</g>
</svg>
